<?xml version="1.0" encoding="UTF-8"?>
<svg id="Simulated_differences" data-name="Simulated differences" xmlns="http://www.w3.org/2000/svg" viewBox="0 0 465.17 250.69">
  <defs>
    <style>
      .cls-1, .cls-2, .cls-3 {
        opacity: .65;
      }

      .cls-1, .cls-2, .cls-3, .cls-4, .cls-5 {
        stroke-width: 0px;
      }

      .cls-1, .cls-6, .cls-4 {
        fill: #e0d6c6;
      }

      .cls-2, .cls-7, .cls-8, .cls-5 {
        fill: #8abbe5;
      }

      .cls-3, .cls-9, .cls-10, .cls-11 {
        fill: none;
      }

      .cls-7, .cls-9 {
        stroke: #e0d6c6;
      }

      .cls-7, .cls-11 {
        stroke-miterlimit: 10;
        stroke-width: .01px;
      }

      .cls-8, .cls-6 {
        font-family: Lato-Regular, Lato;
        font-size: 15.16px;
      }

      .cls-9, .cls-10 {
        stroke-linejoin: round;
        stroke-width: 4px;
      }

      .cls-10 {
        stroke: #8abbe5;
      }

      .cls-11 {
        stroke: #263c93;
      }
    </style>
  </defs>
  <rect class="cls-4" width="34.23" height="142.19"/>
  <g>
    <rect class="cls-1" x="38.03" y="142.19" width="34.23" height="5.66"/>
    <rect class="cls-4" x="38.03" y="142.19" width="34.23" height="5.66"/>
  </g>
  <g>
    <rect class="cls-1" x="76.06" y="142.18" width="34.23" height="5.51"/>
    <rect class="cls-4" x="76.06" y="142.18" width="34.23" height="5.51"/>
  </g>
  <g>
    <rect class="cls-1" x="114.08" y="142.18" width="34.23" height="5.33"/>
    <rect class="cls-4" x="114.08" y="142.18" width="34.23" height="5.33"/>
  </g>
  <g>
    <rect class="cls-1" x="152.11" y="142.19" width="34.23" height="4.94"/>
    <rect class="cls-4" x="152.11" y="142.19" width="34.23" height="4.94"/>
  </g>
  <g>
    <rect class="cls-1" x="190.14" y="142.18" width="34.23" height="4.7"/>
    <rect class="cls-4" x="190.14" y="142.18" width="34.23" height="4.7"/>
  </g>
  <line class="cls-9" x1="55.15" y1="174.49" x2="55.15" y2="121.22"/>
  <line class="cls-9" x1="93.17" y1="173.82" x2="93.17" y2="121.56"/>
  <line class="cls-9" x1="131.2" y1="173.31" x2="131.2" y2="121.71"/>
  <line class="cls-9" x1="169.23" y1="172.16" x2="169.23" y2="122.1"/>
  <line class="cls-9" x1="207.25" y1="171.4" x2="207.25" y2="122.38"/>
  <g>
    <rect class="cls-2" x="240.81" width="34.23" height="142.19"/>
    <rect class="cls-5" x="240.81" width="34.23" height="142.19"/>
  </g>
  <g>
    <rect class="cls-2" x="278.84" y="142.19" width="34.23" height="65.43"/>
    <rect class="cls-5" x="278.84" y="142.19" width="34.23" height="65.43"/>
  </g>
  <g>
    <rect class="cls-2" x="316.86" y="142.18" width="34.23" height="2.69"/>
    <rect class="cls-5" x="316.86" y="142.18" width="34.23" height="2.69"/>
  </g>
  <g>
    <rect class="cls-3" x="354.89" y="142.11" width="34.23" height=".09"/>
    <rect class="cls-11" x="354.89" y="142.11" width="34.23" height=".09"/>
  </g>
  <g>
    <rect class="cls-2" x="392.92" y="142.18" width="34.23" height=".37"/>
    <rect class="cls-7" x="392.92" y="142.18" width="34.23" height=".37"/>
  </g>
  <g>
    <rect class="cls-2" x="430.94" y="142.07" width="34.23" height=".12"/>
    <rect class="cls-7" x="430.94" y="142.07" width="34.23" height=".12"/>
  </g>
  <line class="cls-10" x1="295.95" y1="227.6" x2="295.95" y2="187.64"/>
  <line class="cls-10" x1="333.98" y1="175.93" x2="333.98" y2="113.83"/>
  <line class="cls-10" x1="372.01" y1="172.18" x2="372.01" y2="112.03"/>
  <line class="cls-10" x1="410.03" y1="172" x2="410.03" y2="113.1"/>
  <line class="cls-10" x1="448.06" y1="170.51" x2="448.06" y2="113.62"/>
  <text class="cls-6" transform="translate(14.05 250.57) scale(1.07 1)"><tspan x="0" y="0">0</tspan></text>
  <text class="cls-6" transform="translate(52.08 250.57) scale(1.07 1)"><tspan x="0" y="0">1</tspan></text>
  <text class="cls-6" transform="translate(90.11 250.57) scale(1.07 1)"><tspan x="0" y="0">2</tspan></text>
  <text class="cls-6" transform="translate(128.13 250.57) scale(1.07 1)"><tspan x="0" y="0">3</tspan></text>
  <text class="cls-6" transform="translate(166.16 250.57) scale(1.07 1)"><tspan x="0" y="0">4</tspan></text>
  <text class="cls-6" transform="translate(204.19 250.57) scale(1.07 1)"><tspan x="0" y="0">5</tspan></text>
  <text class="cls-8" transform="translate(254.86 250.57) scale(1.07 1)"><tspan x="0" y="0">0</tspan></text>
  <text class="cls-8" transform="translate(292.89 250.57) scale(1.07 1)"><tspan x="0" y="0">1</tspan></text>
  <text class="cls-8" transform="translate(330.91 250.57) scale(1.07 1)"><tspan x="0" y="0">2</tspan></text>
  <text class="cls-8" transform="translate(368.94 250.57) scale(1.07 1)"><tspan x="0" y="0">3</tspan></text>
  <text class="cls-8" transform="translate(406.97 250.57) scale(1.07 1)"><tspan x="0" y="0">4</tspan></text>
  <text class="cls-8" transform="translate(444.99 250.57) scale(1.07 1)"><tspan x="0" y="0">5</tspan></text>
</svg>